<?xml version="1.0" encoding="UTF-8" standalone="no"?>
<!-- Created with Inkscape (http://www.inkscape.org/) -->

<svg
   xmlns:dc="http://purl.org/dc/elements/1.1/"
   xmlns:cc="http://creativecommons.org/ns#"
   xmlns:rdf="http://www.w3.org/1999/02/22-rdf-syntax-ns#"
   xmlns:svg="http://www.w3.org/2000/svg"
   xmlns="http://www.w3.org/2000/svg"
   xmlns:sodipodi="http://sodipodi.sourceforge.net/DTD/sodipodi-0.dtd"
   xmlns:inkscape="http://www.inkscape.org/namespaces/inkscape"
   width="210mm"
   height="164mm"
   viewBox="0 0 210 164"
   version="1.1"
   id="svg8"
   inkscape:version="0.92.4 (5da689c313, 2019-01-14)"
   sodipodi:docname="logo.svg">
  <defs
     id="defs2" />
  <sodipodi:namedview
     id="base"
     pagecolor="#ffffff"
     bordercolor="#666666"
     borderopacity="1.0"
     inkscape:pageopacity="0.0"
     inkscape:pageshadow="2"
     inkscape:zoom="0.7"
     inkscape:cx="613.0301"
     inkscape:cy="657.09658"
     inkscape:document-units="mm"
     inkscape:current-layer="layer1"
     showgrid="false"
     height="165mm"
     inkscape:window-width="2560"
     inkscape:window-height="1417"
     inkscape:window-x="3432"
     inkscape:window-y="-8"
     inkscape:window-maximized="1" />
  <metadata
     id="metadata5">
    <rdf:RDF>
      <cc:Work
         rdf:about="">
        <dc:format>image/svg+xml</dc:format>
        <dc:type
           rdf:resource="http://purl.org/dc/dcmitype/StillImage" />
        <dc:title></dc:title>
      </cc:Work>
    </rdf:RDF>
  </metadata>
  <g
     inkscape:label="Layer 1"
     inkscape:groupmode="layer"
     id="layer1"
     transform="translate(0,-133)">
    <g
       id="layer1-2"
       inkscape:label="Layer 1"
       transform="translate(0.47246905,133.04878)">
      <path
         sodipodi:nodetypes="cccsccccccccccccccccscccccccccccc"
         inkscape:connector-curvature="0"
         id="path3724-0-9-4-0"
         d="m 17.711102,102.05798 c 1.793449,-1.96849 3.476552,-4.379898 5.992792,-5.67848 C 21.746221,73.926299 7.6677346,79.12811 6.767908,80.139529 c -2.9813471,6.189417 6.371388,13.526013 5.121899,20.148621 -1.449676,7.6836 -5.5455379,19.61488 -1.700142,32.26639 l -4.6660208,-8.08777 c -8.6733121,11.21656 -5.91021486,38.29246 20.6860488,37.32821 l 91.298387,0.46661 c 13.78464,-29.03485 -4.12539,-44.67241 -21.191448,-60.85278 -20.747505,7.07204 -53.274921,-15.614806 -54.281336,-25.040993 -0.173905,-3.256347 0.340946,-6.635726 3.732815,-7.85448 27.48181,3.513799 18.44802,-5.300681 32.234447,-12.948212 7.850001,-0.629947 11.515473,4.832 17.419776,6.687963 5.191196,-4.74719 7.636786,-4.174726 11.353906,-6.065837 -0.19508,-5.16608 -4.56204,-4.317034 -5.5992,-9.643099 C 98.888598,11.687587 68.435924,9.4146327 55.944206,13.648274 50.342067,13.166174 54.728457,9.0225232 54.430098,5.7675143 52.473054,1.4714309 50.503581,8.860186 48.638401,11.402054 48.700436,5.4783845 47.598349,1.1069751 42.851846,1.5947667 44.995159,8.7870946 43.607585,14.153105 39.741171,18.236932 16.473612,32.976222 13.587761,61.560803 24.757712,78.714747 c 9.275652,14.244812 31.799123,13.102899 38.313562,34.709083 -3.929905,-4.20536 -17.566502,-6.49792 -16.020015,-2.79962 1.93883,5.43796 2.636629,10.44152 -1.244264,13.84256 1.931532,9.64786 -10.87931,28.0718 -27.685092,15.24237 7.090617,1.95958 23.356794,3.49362 24.107805,-13.22041 -4.815765,-0.0865 -11.711641,1.49707 -13.220395,-1.24428 5.009655,-0.79642 10.155868,-1.0193 14.931268,-2.79963 3.025098,-3.89296 0.49594,-9.31481 -0.602688,-9.87644 -4.933399,0.13296 -9.945579,0.69565 -14.173052,-0.38881 2.854207,-2.30903 6.766442,-1.96416 13.220409,-2.79962 5.511193,-2.56338 1.348967,-9.33661 -0.155542,-9.798665 -12.875807,-5.212006 -20.430833,0.739395 -24.518606,2.476695 z"
         style="fill:#ffcc00;fill-opacity:1;stroke:#ffcc00;stroke-width:0.30794188px;stroke-linecap:butt;stroke-linejoin:miter;stroke-opacity:1" />
      <path
         clip-path="none"
         sodipodi:nodetypes="cccccccccccccccccccccc"
         inkscape:connector-curvature="0"
         id="path3726-4-3-3-0"
         d="m 48.139994,72.596108 c 14.018572,0.436674 20.712434,-0.389504 26.518577,-9.720883 1.491738,-2.611664 5.525145,-5.39392 9.643113,-2.799619 l 7.193422,4.199421 c -3.486865,3.343988 -6.195085,6.687976 -8.126629,10.031963 6.047413,-4.503392 12.608618,-9.18309 17.653033,-12.287202 5.46489,-2.247373 9.72629,-2.476004 11.85945,1.244275 4.91208,13.853464 -11.18977,12.859001 -14.581283,11.898364 5.857433,-5.181338 8.546303,-6.524288 11.742773,-5.599239 -0.0815,-1.154388 -0.74641,-1.842543 -2.02194,-2.566308 -5.8724,0.360997 -7.166,2.562175 -10.498499,4.82156 -9.620136,8.369402 -19.425959,16.497544 -41.508099,8.671044 0.486988,-0.647128 0.75838,-1.41532 0.213862,-2.371898 -3.199074,-2.618671 -6.971995,1.066693 -3.285654,4.179975 0.521601,0.19494 0.869307,-0.262267 1.185939,-0.835988 l 9.643124,5.132619 19.675064,7.543394 c 6.398019,1.997163 23.882203,-3.413657 9.487536,-13.76476 1.752156,-1.631297 13.717057,-2.737908 10.731797,8.01001 -5.679428,12.897034 -20.606822,12.835924 -33.673032,6.532428 -8.019644,-3.524655 -14.587832,-7.868395 -19.830611,-12.053886 -4.792,-2.73542 -4.93071,-9.24367 -2.021943,-10.26527 z"
         style="fill:#ff6600;fill-opacity:1;stroke:#ff6600;stroke-width:0.30794188px;stroke-linecap:butt;stroke-linejoin:miter;stroke-opacity:1" />
      <path
         sodipodi:nodetypes="cccc"
         inkscape:connector-curvature="0"
         id="path3728-4-4-2-81"
         d="m 43.046262,42.500269 c -1.898887,-1.283417 -3.155708,-7.272998 3.927227,-10.692974 6.104304,-1.419125 9.468517,0.593599 11.081813,4.354953 -10.029613,-5.210366 -14.644236,1.186617 -15.00904,6.338021 z"
         style="fill:#333333;fill-opacity:1;stroke:#333333;stroke-width:0.30794188px;stroke-linecap:butt;stroke-linejoin:miter;stroke-opacity:1" />
      <path
         sodipodi:nodetypes="cccc"
         inkscape:connector-curvature="0"
         id="path3730-8-0-4-8"
         d="m 79.202244,30.612845 c 0.420682,-1.512584 1.754052,-4.852939 6.07635,-5.237763 3.154776,-0.218983 4.669,1.046358 6.33752,2.172093 -3.105614,-8.555796 -13.401732,-5.322726 -12.41387,3.06567 z"
         style="fill:#333333;fill-opacity:1;stroke:#333333;stroke-width:0.30794188px;stroke-linecap:butt;stroke-linejoin:miter;stroke-opacity:1" />
      <path
         sodipodi:nodetypes="cccc"
         inkscape:connector-curvature="0"
         id="path3732-0-8-4-4"
         d="m 61.01045,46.816336 c -6.431526,-4.936774 -13.010179,2.75935 -10.459674,10.809616 5.812391,11.39912 13.741125,3.699969 13.259282,-4.199425 -7.05142,6.302209 -12.461993,-4.762343 -2.799608,-6.610191 z"
         style="fill:#333333;fill-opacity:1;stroke:#333333;stroke-width:0.30794188px;stroke-linecap:butt;stroke-linejoin:miter;stroke-opacity:1" />
      <path
         sodipodi:nodetypes="cccc"
         inkscape:connector-curvature="0"
         id="path3734-2-9-8-9"
         d="m 92.262239,39.026265 c -3.586609,-4.971692 -8.263814,-1.03371 -7.533541,8.110961 0.435417,3.783991 8.38218,14.130348 9.155715,-3.326865 -3.735073,4.981255 -8.073288,-2.360815 -1.622174,-4.784096 z"
         style="fill:#333333;fill-opacity:1;stroke:#333333;stroke-width:0.30794188px;stroke-linecap:butt;stroke-linejoin:miter;stroke-opacity:1" />
      <path
         clip-path="none"
         sodipodi:nodetypes="cccc"
         inkscape:connector-curvature="0"
         id="path3736-4-9-6-6"
         d="m 81.236859,69.009345 c -2.14111,0.236641 -3.786142,-0.266992 -4.261691,-2.515771 2.103379,-0.226886 3.45501,0.689222 4.289193,2.39204 z"
         style="fill:#333333;fill-opacity:1;stroke:#333333;stroke-width:0.30794188px;stroke-linecap:butt;stroke-linejoin:miter;stroke-opacity:1" />
      <path
         sodipodi:nodetypes="cccc"
         inkscape:connector-curvature="0"
         id="path3738-4-5-5-01"
         d="m 131.31174,137.80386 c -1.10607,-8.59243 3.21627,-9.05481 6.26025,-11.43179 -7.66899,-3.63006 -16.1957,8.39816 -10.77074,15.86451 1.09854,-0.5867 2.94437,-2.81741 4.51049,-4.43272 z"
         style="fill:#ffcc00;fill-opacity:1;stroke:#ffcc00;stroke-width:0.30794188px;stroke-linecap:butt;stroke-linejoin:miter;stroke-opacity:1" />
      <path
         sodipodi:nodetypes="ccccccccc"
         inkscape:connector-curvature="0"
         id="path3740-4-6-2-5"
         d="m 145.65975,142.23658 c -9.20134,-0.70938 -13.41299,-5.95335 -11.0429,-8.94325 2.24001,-5.72621 8.18747,-1.73442 13.92027,-1.01094 3.95409,0.2145 9.04006,3.78654 8.16557,12.40385 -1.96214,17.52114 -22.37601,23.73643 -28.03503,10.49853 l 1.36092,-2.95514 c 6.1917,2.64769 7.73351,1.12242 10.07085,0.31108 -14.53404,-2.03214 -9.49912,-10.70686 -7.349,-11.82061 4.92164,2.60706 9.96198,2.88175 12.90932,1.51648 z"
         style="fill:#ffcc00;fill-opacity:1;stroke:#ffcc00;stroke-width:0.30794188px;stroke-linecap:butt;stroke-linejoin:miter;stroke-opacity:1" />
      <path
         sodipodi:nodetypes="ccccc"
         inkscape:connector-curvature="0"
         id="path33-8-6-5-8"
         d="m 155.44521,76.969098 4.53663,1.182275 3.18942,-11.217893 c -1.44471,-1.300651 -3.24845,-1.703725 -5.27902,-1.539712 z"
         style="fill:#fdf7e7;fill-opacity:1;stroke:#fdf7e7;stroke-width:0.30794188px;stroke-linecap:butt;stroke-linejoin:miter;stroke-opacity:1" />
      <path
         sodipodi:nodetypes="ccccccccccc"
         inkscape:connector-curvature="0"
         id="path35-2-2-4-2"
         d="m 143.42997,45.377554 c 16.33558,1.955379 31.52339,5.936272 45.36646,12.290168 l -1.84214,3.986751 -16.63438,-5.828897 5.52646,3.381861 c -2.06491,2.725782 -4.6693,4.982559 -9.62319,5.196527 -3.91117,-2.960305 -6.43647,-2.419581 -8.99079,-1.952134 -4.70372,-2.202401 -5.32524,-5.817838 -6.3513,-9.293249 l 5.93887,-0.302446 -13.71993,-3.244371 z"
         style="fill:#ca9d52;fill-opacity:1;stroke:#ca9d52;stroke-width:0.30794188px;stroke-linecap:butt;stroke-linejoin:miter;stroke-opacity:1" />
      <path
         sodipodi:nodetypes="cccccccccccccccccccc"
         inkscape:connector-curvature="0"
         id="path37-2-5-2-5"
         d="m 143.9249,41.363313 34.31353,7.203642 5.22402,-9.458209 -2.58453,10.173071 10.00811,4.124213 c 5.25663,-6.993313 11.39419,-12.885502 17.81665,-18.421509 l -9.40321,-3.244393 c -4.58528,3.736481 -8.7037,7.939839 -12.26272,12.702613 l 6.70877,-14.077348 -14.13234,-3.244394 -7.31363,10.77797 2.91446,-11.43784 -10.17308,-2.034617 -4.39919,12.922563 1.09978,-13.582445 -5.11402,-0.769845 -4.28921,15.342107 c -0.13342,-5.759982 -1.87764,-10.983046 -3.73927,-16.166957 l -7.80854,-1.044799 c 1.91617,6.571122 2.67225,13.374249 3.13442,20.236177 z"
         style="fill:#fdf7e7;fill-opacity:1;stroke:#fdf7e7;stroke-width:0.30794188px;stroke-linecap:butt;stroke-linejoin:miter;stroke-opacity:1" />
      <path
         inkscape:connector-curvature="0"
         id="path258-2-8"
         d="m 140.02062,127.2296 13.74742,-46.438721 5.25149,0.907323 -14.15982,47.181118 z"
         style="fill:#ca9d52;fill-opacity:1;stroke:#ca9d52;stroke-width:0.30794188px;stroke-linecap:butt;stroke-linejoin:miter;stroke-opacity:1" />
      <path
         sodipodi:nodetypes="ccccc"
         inkscape:connector-curvature="0"
         id="path260-1-6-8"
         d="m 117.19504,54.025585 c 5.3273,-0.787035 9.12535,-3.285339 9.91817,-10.661884 0.56062,7.66415 2.78948,9.86171 8.79833,11.107895 -5.37039,0.598744 -8.93499,3.766612 -9.40322,11.602819 -0.24788,-7.931551 -4.00729,-11.225458 -9.31328,-12.04883 z"
         style="fill:#fdf7e7;fill-opacity:1;stroke:#fdf7e7;stroke-width:0.30794188px;stroke-linecap:butt;stroke-linejoin:miter;stroke-opacity:1" />
      <path
         sodipodi:nodetypes="ccccc"
         inkscape:connector-curvature="0"
         id="path260-9-1-3-4"
         d="m 132.65858,69.477817 c 3.73106,-0.565782 6.3911,-2.361736 6.94637,-7.664523 0.39264,5.509527 1.95368,7.08929 6.16208,7.985137 -3.76124,0.430423 -6.25778,2.707708 -6.58574,8.340921 -0.17358,-5.701766 -2.80658,-8.069647 -6.52271,-8.661535 z"
         style="fill:#fdf7e7;fill-opacity:1;stroke:#fdf7e7;stroke-width:0.21850322px;stroke-linecap:butt;stroke-linejoin:miter;stroke-opacity:1" />
    </g>
  </g>
</svg>
